<?xml version="1.0"?>
<svg xmlns="http://www.w3.org/2000/svg" id="Capa_1" enable-background="new 0 0 497 497" height="512px" viewBox="0 0 497 497" width="512px" class=""><g><g><path d="m177.217 391.601 22.447 61.117-22.447 44.282h-54.225c.001-75.53 54.225-105.399 54.225-105.399z" fill="#e7886e" data-original="#E7886E" class="" style="fill:#C12020" data-old_color="#e7886e"/><path d="m374.007 497h-54.225l-20.634-43.516 20.634-61.882c.001-.001 54.225 29.868 54.225 105.398z" fill="#e7886e" data-original="#E7886E" class="" style="fill:#C12020" data-old_color="#e7886e"/><path d="m177.217 391.601h142.565v105.399h-142.565z" fill="#fbe29f" data-original="#FBE29F" class="" style="fill:#FFFFFF" data-old_color="#fbe29f"/><path d="m293.713 396.895c0 24.97-20.242 56.721-45.213 56.721s-45.213-31.751-45.213-56.721 20.242-45.213 45.213-45.213 45.213 20.243 45.213 45.213z" fill="#ffcabd" data-original="#FFCABD" class=""/><circle cx="414.701" cy="251.402" fill="#ffcabd" r="47.557" data-original="#FFCABD" class=""/><circle cx="248.5" cy="241.433" fill="#ffd3bc" r="166.201" data-original="#FFD3BC" class=""/><path d="m419.658 171.574c47.455-126.996-13.732-171.574-171.158-171.574s-218.612 44.578-171.158 171.574z" fill="#fbe29f" data-original="#FBE29F" class="" style="fill:#FFFFFF" data-old_color="#fbe29f"/><path d="m205.271 1.309c-125.071 8.161-170.762 55.636-127.929 170.265h38.082c8.532-71.612 40.493-134.944 89.847-170.265z" fill="#fccb88" data-original="#FCCB88" class="active-path" style="fill:#FCFCFC" data-old_color="#fccb88"/><path d="m205.965 402.131c-55.899-40.838-92.847-111.418-92.847-191.659 0-26.723 3.214-52.817 9.333-77.362-17.252 20.057-29.799 44.275-35.929 70.944-1.344-.132-2.744-.209-4.224-.209-26.265 0-47.557 21.292-47.557 47.557s21.292 47.558 47.557 47.558c3.684 0 6.921-.433 9.789-1.226 18.362 50.995 60.947 90.424 113.878 104.397z" fill="#ffcabd" data-original="#FFCABD" class=""/><path d="m428.162 158.609c-45.566-23.248-109.808-36.609-179.663-36.609-69.853 0-134.094 13.36-179.661 36.608-16.851 8.597-21.71 30.395-9.978 45.236v.001c8.88 11.233 24.431 14.509 37.192 8.014 36.561-18.608 93.091-30.04 152.447-30.04 59.358 0 115.888 11.433 152.448 30.041 12.761 6.495 28.312 3.22 37.192-8.013 11.732-14.842 6.874-36.64-9.977-45.238z" fill="#e7886e" data-original="#E7886E" class="" style="fill:#C12020" data-old_color="#e7886e"/><ellipse cx="248.5" cy="62.271" fill="#e7886e" rx="25.473" ry="32.047" data-original="#E7886E" class="" style="fill:#C12020" data-old_color="#e7886e"/><g fill="#ff9db0"><ellipse cx="149.608" cy="273.654" rx="36.489" ry="29.058" data-original="#FF9DB0" class=""/><ellipse cx="347.392" cy="273.654" rx="36.489" ry="29.058" data-original="#FF9DB0" class=""/></g><g><g><path d="m170.874 253.181c-4.142 0-7.5-3.357-7.5-7.5v-14.916c0-4.143 3.358-7.5 7.5-7.5s7.5 3.357 7.5 7.5v14.916c0 4.143-3.358 7.5-7.5 7.5z" fill="#423e4f" data-original="#423E4F" class=""/></g><g><path d="m326.127 253.181c-4.142 0-7.5-3.357-7.5-7.5v-14.916c0-4.143 3.358-7.5 7.5-7.5s7.5 3.357 7.5 7.5v14.916c0 4.143-3.358 7.5-7.5 7.5z" fill="#423e4f" data-original="#423E4F" class=""/></g><g><path d="m248.5 262.061c-10.011 0-19.531-4.336-26.12-11.896-2.721-3.123-2.396-7.86.727-10.582 3.122-2.721 7.86-2.396 10.582.727 3.739 4.291 9.138 6.752 14.812 6.752 5.673 0 11.072-2.461 14.812-6.752 2.721-3.123 7.458-3.448 10.582-.727 3.123 2.722 3.448 7.459.726 10.582-6.591 7.56-16.111 11.896-26.121 11.896z" fill="#423e4f" data-original="#423E4F" class=""/></g></g><path d="m121.161 138.5c-19.248 5.475-36.863 12.221-52.322 20.108-16.851 8.597-21.71 30.395-9.978 45.236 8.88 11.233 24.431 14.509 37.192 8.014 5.302-2.699 11.037-5.241 17.127-7.625.422-22.605 3.147-44.702 7.981-65.733z" fill="#e27858" data-original="#E27858" class="" style="fill:#C12020" data-old_color="#e27858"/></g></g> </svg>
